<svg width="189" height="48" viewBox="0 0 189 48" fill="none" xmlns="http://www.w3.org/2000/svg">
<path fill-rule="evenodd" clip-rule="evenodd" d="M10.385 10.5793C10.074 6.39431 8.773 7.66531 5.579 6.39431C3.00699 5.8983 2.78999 4.0383 5.33099 3.9453C9.92 4.2863 12.214 4.3483 16.026 3.7593C17.762 4.0383 18.506 4.7513 19.157 6.42531C22.35 13.1833 27.001 23.3204 30.194 30.0784C30.752 31.2884 31.061 31.5364 31.775 29.9854L41.199 5.8983C42.254 3.8523 43.4 3.3563 46.686 3.6663C52.359 3.7593 53.754 3.6043 56.544 3.2943C58.962 3.3873 58.807 5.2473 56.42 5.8983C52.762 5.9293 50.84 7.16931 50.281 9.89732L50.808 37.5504C51.397 41.6734 53.536 41.7974 57.38 42.7894C59.115 43.5644 58.743 44.7734 57.256 45.1764C49.227 44.2464 46.437 44.3084 38.47 45.0834C36.176 45.3004 36.021 43.3164 38.501 42.7894C41.445 42.1384 42.189 41.6114 42.841 40.0614L42.252 13.4003C42.158 12.3463 41.508 12.3463 41.105 13.5863L29.854 41.7044C28.799 44.0914 28.335 44.0914 27.187 42.2314L13.888 13.4313C13.485 12.4393 12.989 12.7493 12.927 13.3693L13.051 38.7904C13.423 41.7354 15.469 41.9214 19.622 43.2234C20.801 43.5954 20.862 44.5874 19.901 45.2074C11.779 44.5254 10.477 44.5254 2.944 45.4864C1.766 45.4864 1.20899 43.7504 3.03699 43.5024C7.036 42.3554 8.121 42.2934 8.711 39.9994L10.385 10.5793ZM56.142 30.9784C57.351 18.8253 67.4271 15.9733 72.6041 15.9423C78.7421 16.1283 80.6951 18.1433 80.7571 20.1893C80.8191 22.2353 79.3611 23.3204 77.7801 22.8864C74.4011 22.0183 75.0521 18.4533 70.557 18.1743C65.472 18.9183 62.403 24.6224 63.271 31.4424C64.139 38.2634 70.7431 43.3474 78.8031 39.1934C80.7561 38.7594 80.9101 40.3714 79.3291 41.4874C64.512 50.6014 55.522 37.6124 56.142 30.9784ZM84.0121 23.4754C85.3761 8.87431 94.7381 2.7673 107.913 1.68229C121.802 1.77529 123.785 2.7053 123.6 10.4553C123.693 13.2453 121.833 13.8963 120.531 10.7343C119.044 7.88231 117.803 6.2393 114.269 4.7823C102.302 2.08529 93.4361 9.77332 92.9091 22.8554C92.0721 41.3014 112.72 46.6954 116.997 39.8134C117.896 38.0154 117.896 33.2414 117.772 29.3034C117.028 26.6994 114.548 26.9474 112.13 26.8544C109.526 27.0404 108.596 24.0954 112.099 24.1264C115.478 24.1264 121.988 24.4364 130.358 23.6614C132.838 23.7544 133.024 26.0174 129.986 26.3584C128.684 26.6064 125.925 26.5754 125.553 28.7464C125.242 39.9684 127.847 41.0534 119.384 44.1224C108.596 46.6644 96.9701 45.4864 90.3981 39.1314C87.4531 36.5274 83.7641 30.5444 84.0121 23.4754ZM137.798 26.6374C137.643 24.9634 137.426 23.6614 135.504 23.1034C134.14 22.9794 133.488 21.7393 135.441 20.9953C139.347 19.7243 139.905 19.5073 142.913 17.0893C143.843 16.5933 144.929 16.9963 144.401 18.6703C144.184 19.9413 144.215 20.5303 144.122 21.8943L144.153 39.0074C144.308 41.7974 146.478 42.2624 147.874 42.8204C149.269 43.3784 149.393 45.0214 147.75 45.0524C141.673 44.2154 140.341 44.1224 134.48 45.3004C132.527 45.3314 132.093 43.8434 134.511 42.9754C136.929 42.1074 137.735 41.7044 137.859 39.6274L137.798 26.6374ZM155.376 39.5654C155.221 41.1154 154.508 42.1384 151.594 42.9444C149.3 43.6884 149.578 44.8974 151.904 44.9904C158.166 44.0924 160.119 44.2464 165.73 44.8664C167.931 44.8354 167.559 43.4094 166.195 42.7584C162.909 41.4874 162.382 41.4564 161.731 38.2014L161.483 5.3403C161.483 3.4493 162.196 1.24829 160.181 1.74429C156.43 3.2323 156.119 3.3563 152.71 4.5343C150.911 5.3093 151.594 6.1773 152.896 6.61131C154.725 7.35531 154.88 8.47131 154.973 9.80431L155.376 39.5654ZM174.658 39.7514C174.504 41.3014 173.791 42.3244 170.877 43.1304C168.582 43.8744 168.861 45.0834 171.187 45.1764C177.45 44.2774 179.402 44.4324 185.014 45.0524C187.215 45.0214 186.843 43.5954 185.479 42.9444C182.193 41.6734 181.665 41.6424 181.015 38.3874L180.767 5.5263C180.767 3.6353 181.479 1.43429 179.464 1.93029C175.713 3.4183 175.402 3.5423 171.992 4.7203C170.194 5.4953 170.877 6.36331 172.179 6.79731C174.008 7.54131 174.162 8.65731 174.256 9.99032L174.658 39.7514ZM141.147 2.24029C143.069 2.24029 144.681 3.8213 144.681 5.7743C144.681 7.72731 143.069 9.33931 141.147 9.33931C139.224 9.33931 137.643 7.72731 137.643 5.7743C137.643 3.8213 139.224 2.24029 141.147 2.24029Z" fill="#ED1B2F"/>
</svg>
